<?xml version="1.0" encoding="UTF-8" standalone="no"?>
<!-- Created with Inkscape (http://www.inkscape.org/) -->

<svg
   width="256mm"
   height="256mm"
   viewBox="0 0 256 256"
   version="1.1"
   id="svg1"
   xml:space="preserve"
   inkscape:version="1.4.2 (f4327f4, 2025-05-13)"
   sodipodi:docname="drawing.svg"
   inkscape:export-filename="drawing.png"
   inkscape:export-xdpi="96"
   inkscape:export-ydpi="96"
   xmlns:inkscape="http://www.inkscape.org/namespaces/inkscape"
   xmlns:sodipodi="http://sodipodi.sourceforge.net/DTD/sodipodi-0.dtd"
   xmlns="http://www.w3.org/2000/svg"
   xmlns:svg="http://www.w3.org/2000/svg"><sodipodi:namedview
     id="namedview1"
     pagecolor="#929292"
     bordercolor="#ffffff"
     borderopacity="1"
     inkscape:showpageshadow="0"
     inkscape:pageopacity="0"
     inkscape:pagecheckerboard="true"
     inkscape:deskcolor="#505050"
     inkscape:document-units="mm"
     inkscape:zoom="0.70710678"
     inkscape:cx="724.78445"
     inkscape:cy="514.06663"
     inkscape:window-width="1717"
     inkscape:window-height="1161"
     inkscape:window-x="0"
     inkscape:window-y="0"
     inkscape:window-maximized="0"
     inkscape:current-layer="layer1"
     showborder="true" /><defs
     id="defs1"><inkscape:path-effect
       effect="mirror_symmetry"
       start_point="121.68696,121.00586"
       end_point="121.68696,68.814636"
       center_point="121.68696,94.910248"
       id="path-effect28"
       is_visible="true"
       lpeversion="1.2"
       lpesatellites=""
       mode="free"
       discard_orig_path="false"
       fuse_paths="true"
       oposite_fuse="false"
       split_items="false"
       split_open="false"
       link_styles="false" /><inkscape:path-effect
       effect="mirror_symmetry"
       start_point="121.67982,126.82895"
       end_point="121.67982,63.022564"
       center_point="121.67982,94.925757"
       id="path-effect27"
       is_visible="true"
       lpeversion="1.2"
       lpesatellites=""
       mode="free"
       discard_orig_path="false"
       fuse_paths="true"
       oposite_fuse="true"
       split_items="false"
       split_open="false"
       link_styles="false" /><inkscape:path-effect
       effect="mirror_symmetry"
       start_point="121.67982,126.82895"
       end_point="121.67982,63.022564"
       center_point="121.67982,94.925757"
       id="path-effect25"
       is_visible="true"
       lpeversion="1.2"
       lpesatellites=""
       mode="free"
       discard_orig_path="false"
       fuse_paths="true"
       oposite_fuse="true"
       split_items="false"
       split_open="false"
       link_styles="false" /><inkscape:path-effect
       effect="mirror_symmetry"
       start_point="121.68002,107.53762"
       end_point="121.68002,59.092611"
       center_point="121.68002,83.315116"
       id="path-effect24"
       is_visible="true"
       lpeversion="1.2"
       lpesatellites=""
       mode="free"
       discard_orig_path="false"
       fuse_paths="true"
       oposite_fuse="true"
       split_items="false"
       split_open="false"
       link_styles="false" /><inkscape:path-effect
       effect="mirror_symmetry"
       start_point="121.90419,23.911202"
       end_point="121.90419,129.47427"
       center_point="121.90419,76.692736"
       id="path-effect23"
       is_visible="true"
       lpeversion="1.2"
       lpesatellites=""
       mode="X"
       discard_orig_path="false"
       fuse_paths="true"
       oposite_fuse="false"
       split_items="false"
       split_open="false"
       link_styles="false" /><inkscape:path-effect
       effect="fillet_chamfer"
       id="path-effect21"
       is_visible="true"
       lpeversion="1"
       nodesatellites_param="F,0,0,1,0,0,0,1 @ F,0,0,1,0,0,0,1 @ F,0,1,1,0,9.9515017,0,1 @ F,0,0,1,0,9.9515017,0,1 @ F,0,0,1,0,0,0,1 @ F,0,0,1,0,0,0,1 @ F,0,0,1,0,0,0,1 @ F,0,0,1,0,0,0,1 @ F,0,0,1,0,0,0,1"
       radius="0"
       unit="px"
       method="auto"
       mode="F"
       chamfer_steps="1"
       flexible="false"
       use_knot_distance="true"
       apply_no_radius="true"
       apply_with_radius="true"
       only_selected="false"
       hide_knots="false" /><inkscape:path-effect
       effect="offset"
       id="path-effect19"
       is_visible="true"
       lpeversion="1.3"
       linejoin_type="miter"
       unit="mm"
       offset="0"
       miter_limit="4"
       attempt_force_join="false"
       update_on_knot_move="true" /><inkscape:path-effect
       effect="fillet_chamfer"
       id="path-effect18"
       is_visible="true"
       lpeversion="1"
       nodesatellites_param="F,0,0,1,0,1.0798169,0,1 @ F,0,0,1,0,0,0,1 @ F,0,0,1,0,0,0,1 @ F,0,0,1,0,0,0,1 @ F,0,0,1,0,0,0,1 @ F,0,0,1,0,0,0,1 @ F,0,0,1,0,0,0,1 @ F,0,0,1,0,0,0,1 @ F,0,0,1,0,0,0,1 @ F,0,0,1,0,1.2695768,0,1 @ F,0,0,1,0,1.3170057,0,1"
       radius="0"
       unit="px"
       method="auto"
       mode="F"
       chamfer_steps="1"
       flexible="false"
       use_knot_distance="true"
       apply_no_radius="true"
       apply_with_radius="true"
       only_selected="false"
       hide_knots="false" /><inkscape:path-effect
       effect="fillet_chamfer"
       id="path-effect16"
       is_visible="true"
       lpeversion="1"
       nodesatellites_param="F,0,0,1,0,0.77892414,0,1 @ F,0,0,1,0,0,0,1 @ F,0,0,1,0,0,0,1 @ F,0,0,1,0,1.1330036,0,1 @ F,0,0,1,0,0,0,1 @ F,0,0,1,0,0,0,1 @ F,0,0,1,0,0,0,1 @ F,0,0,1,0,0,0,1 @ F,0,0,1,0,0,0,1 @ F,0,0,1,0,0,0,1 @ F,0,0,1,0,0,0,1 @ F,0,0,1,0,0.85131892,0,1 @ F,0,0,1,0,0.49387758,0,1 @ F,0,0,1,0,0.77716259,0,1 @ F,0,0,1,0,0.48425738,0,1 @ F,0,0,1,0,0,0,1 @ F,0,0,1,0,0,0,1 @ F,0,0,1,0,0,0,1 @ F,0,0,1,0,0,0,1 @ F,0,0,1,0,0,0,1 @ F,0,0,1,0,0,0,1 @ F,0,0,1,0,0,0,1 @ F,0,0,1,0,0,0,1 @ F,0,0,1,0,0,0,1 @ F,0,0,1,0,0,0,1 @ F,0,0,1,0,1.1652574,0,1 @ F,0,0,1,0,1.2433277,0,1"
       radius="0"
       unit="px"
       method="auto"
       mode="F"
       chamfer_steps="1"
       flexible="false"
       use_knot_distance="true"
       apply_no_radius="true"
       apply_with_radius="true"
       only_selected="false"
       hide_knots="false" /><inkscape:path-effect
       effect="fillet_chamfer"
       id="path-effect14"
       is_visible="true"
       lpeversion="1"
       nodesatellites_param="F,0,0,1,0,1.0798169,0,1 @ F,0,0,1,0,0,0,1 @ F,0,0,1,0,0,0,1 @ F,0,0,1,0,0,0,1 @ F,0,0,1,0,0,0,1 @ F,0,0,1,0,0,0,1 @ F,0,0,1,0,0,0,1 @ F,0,0,1,0,0,0,1 @ F,0,0,1,0,0,0,1 @ F,0,0,1,0,1.2695768,0,1 @ F,0,0,1,0,1.3170057,0,1"
       radius="0"
       unit="px"
       method="auto"
       mode="F"
       chamfer_steps="1"
       flexible="false"
       use_knot_distance="true"
       apply_no_radius="true"
       apply_with_radius="true"
       only_selected="false"
       hide_knots="false" /><inkscape:path-effect
       effect="fillet_chamfer"
       id="path-effect13"
       is_visible="true"
       lpeversion="1"
       nodesatellites_param="F,0,0,1,0,0.77892414,0,1 @ F,0,0,1,0,0,0,1 @ F,0,0,1,0,0,0,1 @ F,0,0,1,0,1.1330036,0,1 @ F,0,0,1,0,0,0,1 @ F,0,0,1,0,0,0,1 @ F,0,0,1,0,0,0,1 @ F,0,0,1,0,0,0,1 @ F,0,0,1,0,0,0,1 @ F,0,0,1,0,0,0,1 @ F,0,0,1,0,0,0,1 @ F,0,0,1,0,0.85131892,0,1 @ F,0,0,1,0,0.49387758,0,1 @ F,0,0,1,0,0.77716259,0,1 @ F,0,0,1,0,0.48425738,0,1 @ F,0,0,1,0,0,0,1 @ F,0,0,1,0,0,0,1 @ F,0,0,1,0,0,0,1 @ F,0,0,1,0,0,0,1 @ F,0,0,1,0,0,0,1 @ F,0,0,1,0,0,0,1 @ F,0,0,1,0,0,0,1 @ F,0,0,1,0,0,0,1 @ F,0,0,1,0,0,0,1 @ F,0,0,1,0,0,0,1 @ F,0,0,1,0,1.1652574,0,1 @ F,0,0,1,0,1.2433277,0,1"
       radius="0"
       unit="px"
       method="auto"
       mode="F"
       chamfer_steps="1"
       flexible="false"
       use_knot_distance="true"
       apply_no_radius="true"
       apply_with_radius="true"
       only_selected="false"
       hide_knots="false" /><inkscape:path-effect
       effect="fillet_chamfer"
       id="path-effect12"
       is_visible="true"
       lpeversion="1"
       nodesatellites_param="F,0,0,1,0,0,0,1 @ F,0,0,1,0,0,0,1 @ F,0,0,1,0,0,0,1 @ F,0,0,1,0,0,0,1 @ F,0,0,1,0,5.6332106,0,1 @ F,0,0,1,0,20.27835,0,1 @ F,0,0,1,0,0,0,1 @ F,0,0,1,0,0,0,1 @ F,0,0,1,0,0,0,1 @ F,0,0,1,0,0,0,1 @ F,0,0,1,0,5.9857924,0,1 @ F,0,0,1,0,0,0,1 @ F,0,0,1,0,9.8425005,0,1 @ F,0,0,1,0,0,0,1 @ F,0,0,1,0,0,0,1"
       radius="0"
       unit="px"
       method="auto"
       mode="F"
       chamfer_steps="1"
       flexible="false"
       use_knot_distance="true"
       apply_no_radius="true"
       apply_with_radius="true"
       only_selected="false"
       hide_knots="false" /><inkscape:path-effect
       effect="mirror_symmetry"
       start_point="121.90419,23.911202"
       end_point="121.90419,129.47427"
       center_point="121.90419,76.692736"
       id="path-effect8"
       is_visible="true"
       lpeversion="1.2"
       lpesatellites=""
       mode="X"
       discard_orig_path="false"
       fuse_paths="true"
       oposite_fuse="false"
       split_items="false"
       split_open="false"
       link_styles="false" /><inkscape:path-effect
       effect="fillet_chamfer"
       id="path-effect7"
       is_visible="true"
       lpeversion="1"
       nodesatellites_param="F,0,0,1,0,0,0,1 @ F,0,0,1,0,0,0,1 @ F,0,1,1,0,9.9515017,0,1 @ F,0,0,1,0,9.9515017,0,1 @ F,0,0,1,0,0,0,1 @ F,0,0,1,0,0,0,1 @ F,0,0,1,0,0,0,1 @ F,0,0,1,0,0,0,1 @ F,0,0,1,0,0,0,1"
       radius="0"
       unit="px"
       method="auto"
       mode="F"
       chamfer_steps="1"
       flexible="false"
       use_knot_distance="true"
       apply_no_radius="true"
       apply_with_radius="true"
       only_selected="false"
       hide_knots="false" /></defs><g
     inkscape:groupmode="layer"
     id="layer1"
     inkscape:label="background"><circle
       style="fill:#b7bfb2;fill-opacity:1;stroke-width:0.270997"
       id="path2"
       cx="128"
       cy="128"
       r="126.47194"
       inkscape:label="circle" /></g><g
     inkscape:groupmode="layer"
     id="layer3"
     inkscape:label="cog"
     style="display:inline"><path
       id="path3"
       style="display:inline;fill:#e7eeec;fill-opacity:1;fill-rule:nonzero;stroke-width:0.326319"
       inkscape:label="cog limit"
       d="m 120.23408,28.66445 c -3.878,0 -7.00009,3.122089 -7.00009,7.000089 v 7.034196 A 86.918633,86.918633 0 0 0 78.289868,57.407398 l -5.13974,-5.139738 c -1.37108,-1.37108 -3.16032,-2.056722 -4.94957,-2.056722 -1.78924,0 -3.57849,0.685642 -4.94957,2.056722 l -10.98331,10.983309 c -2.74216,2.74216 -2.74216,7.156978 0,9.899138 l 5.21519,5.215185 A 86.918633,86.918633 0 0 0 43.056876,113.234 h -7.392314 c -3.878,0 -7.000089,3.12209 -7.000089,7.00009 v 15.53239 c 0,3.878 3.122089,6.99957 7.000089,6.99957 h 7.311182 a 86.918633,86.918633 0 0 0 14.313334,35.06246 l -5.0214,5.0214 c -2.74216,2.74216 -2.74216,7.15749 0,9.89965 l 10.98331,10.98279 c 2.74216,2.74217 7.15698,2.74217 9.89914,0 l 4.86482,-4.86481 a 86.918633,86.918633 0 0 0 35.219042,14.90503 v 6.56342 c 0,3.878 3.12209,6.99958 7.00009,6.99958 h 15.53239 c 3.878,0 6.99957,-3.12158 6.99957,-6.99958 v -6.33191 a 86.918633,86.918633 0 0 0 35.77559,-14.57999 l 4.30827,4.30826 c 2.74216,2.74217 7.15749,2.74217 9.89965,0 l 10.98279,-10.98279 c 2.74216,-2.74216 2.74216,-7.15749 0,-9.89965 l -4.23281,-4.23282 a 86.918633,86.918633 0 0 0 14.86731,-35.85104 h 5.96914 c 3.878,0 6.99957,-3.12157 6.99957,-6.99957 v -15.53239 c 0,-3.878 -3.12157,-7.00009 -6.99957,-7.00009 H 214.2857 A 86.918633,86.918633 0 0 0 199.30316,77.579294 l 4.42918,-4.429187 c 2.74216,-2.74216 2.74216,-7.156978 0,-9.899138 L 192.74955,52.26766 c -1.37108,-1.37108 -3.1602,-2.056722 -4.94957,-2.056722 -1.78937,0 -3.579,0.685642 -4.95008,2.056722 l -4.58577,4.585767 A 86.918633,86.918633 0 0 0 142.76604,42.467225 v -6.802686 c 0,-3.878 -3.12157,-7.000089 -6.99957,-7.000089 z m 8.43721,34.466113 a 67.454239,65.10508 0 0 1 8.16333,0.52555 67.454239,65.10508 0 0 1 0.002,0 67.454239,65.10508 0 0 1 2.50114,0.384472 67.454239,65.10508 0 0 1 0.003,5.17e-4 67.454239,65.10508 0 0 1 23.61251,8.124052 67.454239,65.10508 0 0 1 6.78253,4.458642 67.454239,65.10508 0 0 1 10e-4,0.001 67.454239,65.10508 0 0 1 2.03347,1.658813 67.454239,65.10508 0 0 1 4.15116,3.568775 67.454239,65.10508 0 0 1 2.15336,2.200382 67.454239,65.10508 0 0 1 3.35173,3.738274 67.454239,65.10508 0 0 1 1.95906,2.51457 67.454239,65.10508 0 0 1 5.1e-4,5.2e-4 67.454239,65.10508 0 0 1 11.73055,27.33843 67.454239,65.10508 0 0 1 0.47026,2.57658 67.454239,65.10508 0 0 1 0.5395,8.0145 67.454239,65.10508 0 0 1 -0.45062,7.44864 67.454239,65.10508 0 0 1 -0.42323,2.39727 67.454239,65.10508 0 0 1 -0.003,0.0145 67.454239,65.10508 0 0 1 -10.27534,25.99531 67.454239,65.10508 0 0 1 -4.51859,5.86476 67.454239,65.10508 0 0 1 0,5.2e-4 67.454239,65.10508 0 0 1 -5.51646,5.62343 67.454239,65.10508 0 0 1 -2.01176,1.65778 67.454239,65.10508 0 0 1 -4.16151,3.29954 67.454239,65.10508 0 0 1 -2.59777,1.69499 67.454239,65.10508 0 0 1 -27.19369,10.25415 67.454239,65.10508 0 0 1 -2.48977,0.38241 67.454239,65.10508 0 0 1 -7.81296,0.4718 67.454239,65.10508 0 0 1 -8.61084,-0.57516 67.454239,65.10508 0 0 1 -2.06344,-0.3483 67.454239,65.10508 0 0 1 -0.64854,-0.10955 67.454239,65.10508 0 0 1 -4.10259,-0.69195 67.454239,65.10508 0 0 1 -20.001892,-7.97729 67.454239,65.10508 0 0 1 -11.89694,-9.00927 67.454239,65.10508 0 0 1 -9.51829,-11.34039 67.454239,65.10508 0 0 1 -8.91056,-20.52278 h 5.1e-4 a 67.454239,65.10508 0 0 1 -1.08365,-6.13554 67.454239,65.10508 0 0 1 -0.1912,-1.08314 67.454239,65.10508 0 0 1 0,-5.2e-4 67.454239,65.10508 0 0 1 -0.42685,-7.31118 67.454239,65.10508 0 0 1 0.45527,-7.55199 67.454239,65.10508 0 0 1 1.36012,-7.44968 67.454239,65.10508 0 0 1 8.98447,-20.33472 l 5.1e-4,5.2e-4 a 67.454239,65.10508 0 0 1 4.4602,-5.906098 67.454239,65.10508 0 0 1 0,-5.17e-4 67.454239,65.10508 0 0 1 5.11855,-5.386234 67.454239,65.10508 0 0 1 11.94397,-8.949325 67.454239,65.10508 0 0 1 19.693892,-7.799007 67.454239,65.10508 0 0 1 15.4373,-1.72806 z" /></g><g
     inkscape:groupmode="layer"
     id="layer6"
     inkscape:label="lightbulb"
     transform="translate(-0.41972388)"
     style="display:inline"><path
       id="path6"
       style="fill:#52796f;fill-opacity:1;stroke-width:0.264583"
       d="m 121.9043,23.912109 c -25.391745,-3e-6 -45.976418,20.582718 -45.976566,45.97461 -1.2e-5,14.188431 6.529831,27.377471 17.359375,35.988281 4.293527,3.41388 8.398441,9.7598 8.398441,15.25586 0,0.19003 0.54569,6.27418 5.42187,7.92187 0.80792,0.27301 1.67575,0.42188 2.57813,0.42188 h 12.21875 12.21875 c 0.90237,0 1.7702,-0.14887 2.57812,-0.42188 4.87618,-1.64769 5.42188,-7.73184 5.42188,-7.92187 0,-5.49606 4.10491,-11.84198 8.39843,-15.25586 10.82955,-8.61081 17.35939,-21.79985 17.35938,-35.988281 -1.5e-4,-25.391892 -20.58482,-45.974613 -45.97656,-45.97461 z"
       transform="translate(6.5154358,3.4339435)"
       inkscape:original-d="m 121.90419,23.911202 c -25.391742,-3e-6 -45.97586,20.584113 -45.976008,45.976005 -1.5e-5,17.551945 9.993182,33.572493 25.756568,41.291533 v 10.2955 c 0,4.432 3.56803,8.00003 8.00003,8.00003 h 24.43882 c 4.432,0 8.00002,-3.56803 8.00002,-8.00003 v -10.2955 c 15.76339,-7.71904 25.75659,-23.739587 25.75657,-41.291533 -1.5e-4,-25.391889 -20.58426,-45.976004 -45.976,-45.976005 z"
       inkscape:path-effect="#path-effect7;#path-effect8"
       inkscape:label="bulb"
       sodipodi:nodetypes="sccssssccs" /><rect
       style="fill:#52796f;fill-opacity:1;stroke-width:0.290235"
       id="rect8"
       width="38.561001"
       height="7.9495583"
       x="109.13922"
       y="137.01486"
       rx="5"
       inkscape:label="upper base" /><rect
       style="fill:#52796f;fill-opacity:1;stroke-width:0.290235"
       id="rect8-6"
       width="38.561001"
       height="7.9495583"
       x="109.13922"
       y="147.45982"
       rx="5"
       inkscape:label="lower base" /><path
       id="path23"
       style="display:inline;fill:#e7eeec;fill-opacity:1;stroke-width:0.264583"
       inkscape:label="filament"
       d="m 117.42965,69.115728 c -1.31501,0.05145 -2.66032,0.223756 -3.88504,0.705383 -1.42324,0.559698 -2.73196,1.445198 -3.86281,2.474784 -1.34776,1.227069 -2.62025,2.645684 -3.36724,4.308264 -0.96134,2.139685 -1.10242,4.582161 -1.26762,6.922059 -0.12679,1.795907 0.005,3.608707 0.21652,5.396572 0.20722,1.74829 0.60225,3.47315 1.02733,5.18159 0.40468,1.62646 0.93812,3.2174 1.44746,4.81418 0.27904,0.87478 0.55244,1.75229 0.88108,2.60967 0.32509,0.8481 0.70096,1.67741 1.07797,2.50374 0.38167,0.83653 0.77344,1.66946 1.19889,2.48461 0.28705,0.54998 0.5811,1.09638 0.91209,1.62109 0.21161,0.33545 0.44674,0.65656 0.68368,0.97462 0.30827,0.41382 0.63612,0.81197 0.95912,1.2144 0.32572,0.40581 0.66275,0.80309 0.98805,1.20923 0.48392,0.60416 1.01802,1.17345 1.43402,1.82624 0.31135,0.48856 0.65375,0.98653 0.78497,1.55081 1.35885,5.84359 -0.22066,17.99579 -0.22066,17.9958 h 5.14749 c 0.21989,-3.28165 0.84826,-9.94528 0.99425,-14.93139 0.0444,-1.51483 0.1782,-3.04692 -0.0372,-4.54701 -0.17957,-1.25052 -0.54451,-2.48088 -1.03715,-3.64422 -0.37532,-0.88632 -0.87051,-1.72867 -1.44332,-2.50217 -0.5625,-0.75957 -1.34534,-1.33379 -1.93529,-2.07223 -0.66441,-0.83166 -1.27694,-1.71092 -1.79523,-2.64068 -0.41753,-0.749 -0.74233,-1.54956 -1.05059,-2.34975 -0.54512,-1.41502 -1.02943,-2.85648 -1.41025,-4.32428 -0.42004,-1.61893 -0.72605,-3.26959 -0.95911,-4.9258 -0.24609,-1.74871 -0.40362,-3.512253 -0.46302,-5.277196 -0.0412,-1.222757 -0.23673,-2.486834 0.0744,-3.67006 0.28845,-1.096953 0.84679,-2.158122 1.61334,-2.994133 0.61824,-0.674265 1.42285,-1.229657 2.29495,-1.505851 0.53951,-0.170856 1.11101,-0.253677 1.68569,-0.265617 0.57467,-0.01194 1.15347,0.04632 1.70894,0.154513 0.89584,0.174495 1.74176,0.603971 2.50165,1.109493 0.55638,0.370138 1.08778,0.819855 1.45728,1.37666 0.42937,0.647026 0.65185,1.422899 0.81648,2.181779 0.22052,1.016129 0.18183,2.072251 0.21653,3.111438 0.04,1.205051 -0.3098,2.449024 -0.01,3.616834 0.19614,0.76356 0.5434,1.56075 1.14463,2.07067 0.59456,0.50427 1.83795,0.78495 2.46859,0.92191 0.63063,-0.13696 1.87247,-0.41764 2.46703,-0.92191 0.60123,-0.50992 0.94849,-1.30711 1.14463,-2.07067 0.2998,-1.16781 -0.05,-2.411783 -0.01,-3.616834 0.0347,-1.039187 -0.004,-2.095309 0.21653,-3.111438 0.16463,-0.75888 0.38712,-1.534753 0.81649,-2.181779 0.3695,-0.556805 0.90089,-1.006522 1.45727,-1.37666 0.75989,-0.505522 1.60788,-0.934998 2.50372,-1.109493 1.11094,-0.216394 2.31355,-0.230614 3.39256,0.111104 0.8721,0.276194 1.67671,0.831586 2.29495,1.505851 0.76655,0.836011 1.32489,1.89718 1.61334,2.994133 0.31112,1.183226 0.11561,2.447303 0.0744,3.67006 -0.0594,1.764943 -0.21693,3.528486 -0.46302,5.277196 -0.23306,1.65621 -0.537,3.30687 -0.95704,4.9258 -0.38082,1.4678 -0.8672,2.90926 -1.41232,4.32428 -0.30826,0.80019 -0.63099,1.60075 -1.04852,2.34975 -0.51829,0.92976 -1.13082,1.80902 -1.79523,2.64068 -0.58995,0.73844 -1.37279,1.31266 -1.93529,2.07223 -0.57281,0.7735 -1.07007,1.61585 -1.44539,2.50217 -0.49264,1.16334 -0.85757,2.3937 -1.03714,3.64422 -0.21536,1.50009 -0.0795,3.03218 -0.0351,4.54701 0.14599,4.98611 0.77229,11.64974 0.99218,14.93139 h 5.14956 c 0,0 -1.58157,-12.15221 -0.22272,-17.9958 0.13122,-0.56428 0.47361,-1.06225 0.78496,-1.55081 0.416,-0.65279 0.94958,-1.22208 1.4335,-1.82624 0.3253,-0.40614 0.66285,-0.80342 0.98857,-1.20923 0.323,-0.40243 0.65033,-0.80058 0.9586,-1.2144 0.23694,-0.31806 0.47207,-0.63917 0.68368,-0.97462 0.33099,-0.52471 0.62504,-1.07111 0.91209,-1.62109 0.42545,-0.81515 0.81774,-1.64808 1.19941,-2.48461 0.37701,-0.82633 0.75288,-1.65564 1.07797,-2.50374 0.32864,-0.85738 0.60204,-1.73489 0.88108,-2.60967 0.50934,-1.59678 1.04226,-3.18772 1.44694,-4.81418 0.42508,-1.70844 0.82011,-3.4333 1.02733,-5.18159 0.21191,-1.787865 0.34383,-3.600664 0.21704,-5.396572 -0.1652,-2.339899 -0.30628,-4.782374 -1.26762,-6.922059 -0.74698,-1.66258 -2.01948,-3.081195 -3.36724,-4.308264 -1.13085,-1.029586 -2.44009,-1.915086 -3.86333,-2.474784 -1.22472,-0.481627 -2.5695,-0.653934 -3.88451,-0.705383 -1.20191,-0.04702 -2.43401,0.03284 -3.58997,0.365352 -0.84783,0.24388 -1.63249,0.692473 -2.37298,1.172021 -0.78759,0.510045 -1.45876,1.181023 -2.16989,1.793173 -0.87873,0.756421 -1.65707,1.633819 -2.59002,2.321822 -0.0876,0.0646 -0.17754,0.12742 -0.26769,0.189652 -0.0902,-0.06223 -0.17956,-0.125056 -0.26716,-0.189652 -0.93295,-0.688003 -1.7113,-1.565401 -2.59003,-2.321822 -0.71113,-0.61215 -1.3823,-1.283128 -2.16989,-1.793173 -0.74049,-0.479548 -1.52515,-0.928141 -2.37298,-1.172021 -1.15596,-0.332512 -2.38805,-0.412372 -3.58996,-0.365352 z" /></g><g
     inkscape:groupmode="layer"
     id="layer7"
     inkscape:label="anvil"
     style="display:inline"><g
       id="g29"
       transform="translate(9.9695888,6.0797775)"
       style="fill:#52796f;fill-opacity:1"><path
         id="rect9"
         style="fill:#52796f;fill-opacity:1;stroke-width:0.264583"
         d="m 86.139962,155.49868 v 0.78119 11.72848 15.47839 c 0,0.62574 0.506515,1.16209 1.130343,1.21133 1.045068,0.0825 2.572836,0.2302 3.502986,0.44357 1.565175,0.35904 3.002961,0.66291 4.328443,1.56943 1.440193,0.98497 2.879032,2.07037 3.915285,3.47412 1.152491,1.56121 1.931421,3.52109 2.158141,5.46717 0.35167,3.01858 -0.1541,6.21138 -1.308423,9.02262 -1.149143,2.79863 -3.155377,5.26121 -5.38539,7.30569 -2.819517,2.58493 -6.295003,4.43347 -9.7922,5.98304 -1.609109,0.71298 -4.583773,1.4719 -6.026663,1.81943 -0.456611,0.10998 -0.827958,0.57528 -0.827958,1.04545 v 5.53655 a 0.49387758,0.49387758 45 0 0 0.493878,0.49388 h 86.055416 a 0.77716259,0.77716259 135 0 0 0.77716,-0.77716 v -5.62033 c 0,-0.26745 -0.20383,-0.55826 -0.45458,-0.65142 -1.00691,-0.3741 -3.43801,-1.2991 -4.72969,-1.977 -1.63841,-0.85986 -3.11244,-2.00202 -4.66007,-3.01622 -1.41708,-0.92863 -3.03736,-1.61194 -4.23536,-2.80996 -2.56885,-2.5689 -4.94675,-5.61274 -6.0252,-9.08191 -1.06453,-3.42438 -0.91129,-7.24517 -0.18327,-10.75652 0.62537,-3.01625 2.0901,-5.86548 3.81798,-8.41563 1.73248,-2.55694 3.9891,-4.77516 6.41761,-6.6835 2.02558,-1.59172 4.35346,-2.78139 6.68233,-3.8827 2.64154,-1.24917 5.41015,-2.23839 8.21304,-3.06421 3.28467,-0.96776 6.66375,-1.5965 10.0342,-2.20121 2.33406,-0.41876 6.41907,-0.94718 8.4093,-1.19652 0.63809,-0.0799 1.15563,-0.66435 1.15563,-1.30791 l 0,-9.45373 a 1.2433277,1.2433277 45 0 0 -1.24333,-1.24333 H 86.918886 a 0.77892414,0.77892414 135 0 0 -0.778924,0.77892 z"
         sodipodi:nodetypes="ccccsssssssccccaaaaaaaaaaccc"
         inkscape:path-effect="#path-effect13"
         inkscape:original-d="m 86.139962,154.71976 v 1.56011 11.72848 16.61139 c 0,0 3.113955,0.17337 4.633329,0.5219 1.565175,0.35904 3.002961,0.66291 4.328443,1.56943 1.440193,0.98497 2.879032,2.07037 3.915285,3.47412 1.152491,1.56121 1.931421,3.52109 2.158141,5.46717 0.35167,3.01858 -0.1541,6.21138 -1.308423,9.02262 -1.149143,2.79863 -3.155377,5.26121 -5.38539,7.30569 -2.819517,2.58493 -6.295003,4.43347 -9.7922,5.98304 -2.177259,0.96472 -6.854621,2.01356 -6.854621,2.01356 v 6.88175 h 87.326454 v -6.88175 c 0,0 -3.5284,-1.27513 -5.18427,-2.14416 -1.63841,-0.85986 -3.11244,-2.00202 -4.66007,-3.01622 -1.41708,-0.92863 -3.03736,-1.61194 -4.23536,-2.80996 -2.56885,-2.5689 -4.94675,-5.61274 -6.0252,-9.08191 -1.06453,-3.42438 -0.91129,-7.24517 -0.18327,-10.75652 0.62537,-3.01625 2.0901,-5.86548 3.81798,-8.41563 1.73248,-2.55694 3.9891,-4.77516 6.41761,-6.6835 2.02558,-1.59172 4.35346,-2.78139 6.68233,-3.8827 2.64154,-1.24917 5.41015,-2.23839 8.21304,-3.06421 3.28467,-0.96776 6.66375,-1.5965 10.0342,-2.20121 3.16881,-0.56853 9.56493,-1.33917 9.56493,-1.33917 v -11.86232 z" /><path
         id="rect13"
         style="fill:#52796f;fill-opacity:1;stroke-width:0.269091"
         d="m 46.469065,159.94367 c 0.123933,0.83954 0.332716,1.97379 0.626893,2.64124 0.578221,1.3119 1.633035,2.35946 2.525585,3.48142 0.779305,0.9796 1.602004,1.92641 2.466076,2.83212 1.408207,1.47607 2.826477,2.95974 4.42147,4.23168 1.619865,1.29177 3.416723,2.34856 5.189191,3.42141 1.229919,0.74445 2.474574,1.47247 3.773226,2.08924 1.233375,0.58577 2.520082,1.05437 3.802337,1.52359 1.866978,0.68319 3.735697,1.38131 5.660476,1.87888 1.664603,0.43031 4.520002,0.92253 6.157272,1.19047 0.690835,0.11305 1.251703,-0.36888 1.251703,-1.07005 l 0,-21.97419 a 1.3170057,1.3170057 45 0 0 -1.317006,-1.31701 l -33.613382,0 c -0.596367,0 -1.030931,0.48124 -0.943841,1.0712 z"
         sodipodi:nodetypes="caaaaaaaaccc"
         inkscape:path-effect="#path-effect14"
         inkscape:original-d="m 46.333089,158.87247 c 0,0 0.253348,2.55641 0.762869,3.71244 0.578221,1.3119 1.633035,2.35946 2.525585,3.48142 0.779305,0.9796 1.602004,1.92641 2.466076,2.83212 1.408207,1.47607 2.826477,2.95974 4.42147,4.23168 1.619865,1.29177 3.416723,2.34856 5.189191,3.42141 1.229919,0.74445 2.474574,1.47247 3.773226,2.08924 1.233375,0.58577 2.520082,1.05437 3.802337,1.52359 1.866978,0.68319 3.735697,1.38131 5.660476,1.87888 2.432773,0.62889 7.408975,1.39 7.408975,1.39 v -24.56078 z" /></g></g></svg>
